<svg version="1.0" xmlns="http://www.w3.org/2000/svg" width="1112" height="1112" viewBox="0 0 834 834"><path d="M256.8 184.5c-.2.1-4.1.5-8.8.8-29.7 2-49.9 16.5-61 43.5-5.4 13.2-9 20-20.3 38.6-6 10-11.1 18.6-11.4 19.2-.3.8 26.6 1.1 99.9 1 110.2-.2 106.7-.4 111 5.7 2.5 3.4 2.3.5 2.7 44.9.1 4.8.5 5.9 2.2 6.9 2 1 3.8-.5 21.8-18.5 10.8-10.8 21.4-21.2 23.6-23.2 8.8-7.8 16.9-12.4 25.5-14.3 8.4-1.9 100.2-2.9 127.5-1.5 28.3 1.5 37.5.6 48.5-5.2 10-5.1 15.3-12.1 26.1-33.9 4.1-8.3 11.7-22.1 16.9-30.7 5.2-8.7 11.6-19.3 14.2-23.5 2.5-4.3 4.4-8 4.2-8.2-.2-.3-33.4-.4-73.7-.2-177.9.6-300.5.2-341.9-1.4-3.7-.1-6.9-.1-7 0zM505.6 331.7c-.1.1-11.8.3-26 .4-24.9.2-26 .3-30.6 2.6-3.3 1.6-13.1 10.6-31.7 29.1-37.9 37.4-40.8 40.9-45.2 52.7-1.8 4.6-2.4 8.7-2.7 18-.6 17.7-.5 199.2.1 205 1.1 10.3.7 10 7.8 5.6 3.4-2 8.2-4.9 10.7-6.3 7.7-4.3 11.2-6.3 20-11.5 4.7-2.8 10.3-6.1 12.5-7.3 40.6-22.7 45.9-26.3 48.8-32.9.7-1.8 1.1-19.1 1.3-52.6.2-72.2.1-70.8 5-81.5 6-13.1 17.4-18.6 40.9-19.6 12.8-.6 17.6-1.6 20.9-4.7 2.9-2.7 30.1-47.2 44.4-72.7 1.4-2.5 4.5-7.8 6.9-11.8 2.4-4.1 4.3-7.6 4.3-8 0-.3.7-1.4 1.7-2.4 1.6-1.7 1-1.8-15.8-1.9-9.6 0-29.9-.1-45.2-.2-15.3-.1-28-.1-28.1 0z"/></svg>